<svg viewBox="0 0 72 72" xmlns="http://www.w3.org/2000/svg"><path d="m55 60v-3c0-5-5-9-10-9-6 5-12 5-18 0-5 0-10 4-10 9v3" style="fill:none;stroke:#000;stroke-linecap:round;stroke-linejoin:round;stroke-miterlimit:10;stroke-width:2"/><path d="m40 26.7c1.1 0 2 .9 2 2s-.9 2-2 2-2-.9-2-2 .9-2 2-2z"/><path d="m39.9 36.5c.2.5 0 1.1-.5 1.3-1.1.6-2.3.8-3.5.8s-2.3-.3-3.4-.8c-.5-.2-.7-.8-.5-1.3s.8-.7 1.3-.4c1.7.9 3.4.9 5.1 0 .6-.3 1.2-.1 1.5.4z"/><path d="m32 26.7c1.1 0 2 .9 2 2s-.9 2-2 2-2-.9-2-2 .9-2 2-2z"/><g style="fill:none;stroke:#000;stroke-linecap:round;stroke-linejoin:round;stroke-miterlimit:10;stroke-width:2"><path d="m24.3 29c0 .4 0 1.4-.1 2.4-.2 3.1.4 6.2 1.9 8.9.6 1 1.3 2 2.1 2.7 2.8 2.4 5.6 2.5 7.4 2.5"/><path d="m47.2 28.7v.4c-.3 2.1-2.1 5.8-2.1 5.8s-1.9 3-2.7-1.2c-4.2-1.2-8.6-1.2-13.1 0-.8 4.2-2.7 1.2-2.7 1.2s-1.8-3.7-2.1-5.8c0-.1 0-.2 0-.4"/><path d="m47.2 29c0 .4.1 1.4.1 2.4.2 3.1-.4 6.2-1.9 8.9-.6 1-1.2 2-2.1 2.7-2.8 2.4-5.5 2.5-7.4 2.5-.1 0-.2 0-.3 0"/><path d="m24.3 29s-2.2-6.8 2-13.2c3.2-4.9 12.9-2.4 12.9-2.4l3.1-2.4 1.1 3.1 3.4-2.5c.8 2.2.1 3.9-1.2 5.3-1.1 1.2-2.5 2-3.5 2.5-.7.4-1.2.5-1.2.5-5.8 2.2-6.1 1.9-10.6 0 0 0-3.4-2.5-6.2 8.6"/><path d="m42 19.9h.2c1.2.1 3.2 1.5 5 8.7"/><path d="m45.8 17.1c3 5.8 1.3 11.9 1.3 11.9"/></g></svg>